<svg height="512" width="512" xmlns="http://www.w3.org/2000/svg"><g fill="#000"><path d="m445.8 497-62.6-121.3v-35.6h-28.4l-24.4-54.3c-6-13.4-11.5-27-16.5-40.7h9v-45h-23c-12.5-46.3-19-94-19.4-142h15v-15h-15v-23.8l-22.5-19.3-24.5 19v24.2h-18v15h18a566.5 566.5 0 0 1 -20.1 141.8h-25.4v45h11a568.7 568.7 0 0 1 -17.6 42.7l-24.2 52.3h-29.4v35.6l-62.6 121.4h-33.9v15h125v-15h-15.1l3.4-7.9a120.6 120.6 0 0 1 221.8 0l3.4 8h-14v14.9h124.9v-15h-35zm-129.1-205 21.7 48h-27.2l-34.2-95h21a583.2 583.2 0 0 0 18.7 47zm-21.4 48h-78.6l34.3-95h10zm-46.8-313.6 9-7 8 6.8v17h-17zm-13.5 149c8.4-38.4 13-77.8 13.5-117.1h17c.4 47.9 6.7 95.6 18.8 141.9h-55.4c2.2-8.2 4.2-16.5 6-24.8zm73 39.8v15h-105v-15zm-113 79c7.4-16 14-32.5 20-49h20l-34.2 95h-27zm-52.2 61h225.4v15h-225.4zm243.4 141.8-6-13.8a135.6 135.6 0 0 0 -249.4 0l-6 13.8h-42.7l57.9-112h231.3l57.7 112h-42.7z"/><path d="m350.8 410.9 13.2-6.9 8 15.3-13.4 6.9zm-211.8 8.5 7.9-15.3 13.3 6.9-7.9 15.3zm109.5-250.8h15v20h-15z"/></g></svg>
